%TF.GenerationSoftware,KiCad,Pcbnew,10.0.6-1.fc44*%
%TF.CreationDate,2026-09-10T17:36:19+07:00*%
%TF.ProjectId,Power_Converter,506f7765-725f-4436-9f6e-766572746572,rev?*%
%TF.SameCoordinates,Original*%
%TF.FileFunction,Legend,Bot*%
%TF.FilePolarity,Positive*%
%FSLAX46Y46*%
G04 Gerber Fmt 4.6, Leading zero omitted, Abs format (unit mm)*
G04 Created by KiCad (PCBNEW 10.0.6-1.fc44) date 2026-09-10 17:36:19*
%MOMM*%
%LPD*%
G01*
G04 APERTURE LIST*
%ADD10C,0.150000*%
%ADD11C,0.120000*%
%ADD12C,0.127000*%
G04 APERTURE END LIST*
D10*
X171966666Y-77909580D02*
X172014285Y-77957200D01*
X172014285Y-77957200D02*
X172157142Y-78004819D01*
X172157142Y-78004819D02*
X172252380Y-78004819D01*
X172252380Y-78004819D02*
X172395237Y-77957200D01*
X172395237Y-77957200D02*
X172490475Y-77861961D01*
X172490475Y-77861961D02*
X172538094Y-77766723D01*
X172538094Y-77766723D02*
X172585713Y-77576247D01*
X172585713Y-77576247D02*
X172585713Y-77433390D01*
X172585713Y-77433390D02*
X172538094Y-77242914D01*
X172538094Y-77242914D02*
X172490475Y-77147676D01*
X172490475Y-77147676D02*
X172395237Y-77052438D01*
X172395237Y-77052438D02*
X172252380Y-77004819D01*
X172252380Y-77004819D02*
X172157142Y-77004819D01*
X172157142Y-77004819D02*
X172014285Y-77052438D01*
X172014285Y-77052438D02*
X171966666Y-77100057D01*
X171014285Y-78004819D02*
X171585713Y-78004819D01*
X171299999Y-78004819D02*
X171299999Y-77004819D01*
X171299999Y-77004819D02*
X171395237Y-77147676D01*
X171395237Y-77147676D02*
X171490475Y-77242914D01*
X171490475Y-77242914D02*
X171585713Y-77290533D01*
X178666813Y-67455228D02*
X179143423Y-67455228D01*
X179143423Y-67455228D02*
X179143423Y-66454346D01*
X177808914Y-67455228D02*
X178380846Y-67455228D01*
X178094880Y-67455228D02*
X178094880Y-66454346D01*
X178094880Y-66454346D02*
X178190202Y-66597329D01*
X178190202Y-66597329D02*
X178285524Y-66692651D01*
X178285524Y-66692651D02*
X178380846Y-66740312D01*
%TO.C,C1*%
D11*
X170800000Y-76400000D02*
X170800000Y-73400000D01*
X172800000Y-73400000D02*
X172800000Y-76400000D01*
X170800000Y-73400000D02*
G75*
G02*
X172800000Y-73400000I1000000J-1122254D01*
G01*
X172800000Y-76400000D02*
G75*
G02*
X170800000Y-76400000I-1000000J1122254D01*
G01*
%TO.C,L1*%
D12*
X173350000Y-67950000D02*
X185850000Y-67950000D01*
X173350000Y-71150000D02*
X173350000Y-67950000D01*
X173350000Y-80450000D02*
X173350000Y-77250000D01*
X173350000Y-80450000D02*
X185850000Y-80450000D01*
X185850000Y-71150000D02*
X185850000Y-67950000D01*
X185850000Y-80450000D02*
X185850000Y-77250000D01*
%TD*%
M02*
