M48
; DRILL file KiCad 10.0.6-1.fc44 date 2026-09-10T17:36:19
; FORMAT={-:-/ absolute / metric / decimal}
; #@! TF.CreationDate,2026-09-10T17:36:19+07:00
; #@! TF.GenerationSoftware,Kicad,Pcbnew,10.0.6-1.fc44
; #@! TF.FileFunction,MixedPlating,1,2
FMAT,2
METRIC
; #@! TA.AperFunction,Plated,PTH,ViaDrill
T1C0.300
; #@! TA.AperFunction,Plated,PTH,ComponentDrill
T2C1.000
%
G90
G05
T1
X170.0Y-73.295
X170.0Y-75.027
X170.0Y-76.759
X170.0Y-78.491
X170.0Y-80.223
X170.5Y-77.625
X170.5Y-79.357
X171.0Y-78.491
X171.0Y-80.223
X171.5Y-77.625
X171.5Y-79.357
X172.0Y-78.491
X172.0Y-80.223
X172.5Y-77.625
X172.5Y-79.357
X177.8Y-70.3
X177.9Y-67.6
X186.725Y-77.625
X186.725Y-79.357
X187.0Y-76.759
X187.0Y-78.491
X187.0Y-80.223
X187.5Y-77.625
X187.5Y-79.357
X188.0Y-76.759
X188.0Y-78.491
X188.0Y-80.223
X188.5Y-79.357
X189.0Y-73.295
X189.0Y-78.491
X189.0Y-80.223
X189.5Y-72.429
X189.5Y-79.357
X190.0Y-73.295
X190.0Y-80.223
X190.5Y-67.233
X190.5Y-68.965
X190.5Y-72.429
X190.5Y-79.582
X191.0Y-66.367
X191.0Y-68.099
X191.0Y-73.295
X191.0Y-80.223
X191.5Y-67.233
X191.5Y-68.965
X191.5Y-72.429
X191.725Y-79.357
X192.0Y-66.367
X192.0Y-68.099
X192.0Y-73.295
X192.0Y-78.491
X192.0Y-80.223
X192.5Y-67.233
X192.5Y-68.965
X192.5Y-72.429
X192.5Y-79.357
X192.841Y-78.65
X192.841Y-80.382
X193.0Y-66.367
X193.0Y-68.099
X193.0Y-73.295
X193.5Y-67.233
X193.5Y-68.965
X193.5Y-72.429
X194.0Y-66.367
X194.0Y-68.099
X194.0Y-73.295
X194.5Y-67.233
X194.5Y-68.965
X194.5Y-72.429
X195.0Y-66.367
X195.5Y-67.7
X195.5Y-68.7
X195.5Y-69.7
X195.5Y-70.7
X196.0Y-66.367
X196.5Y-67.7
X196.5Y-68.7
X196.5Y-69.7
X196.5Y-70.7
X197.0Y-66.367
X197.5Y-79.357
X198.0Y-66.367
X198.0Y-71.563
X198.0Y-73.295
X198.0Y-78.491
X198.0Y-80.223
X198.5Y-70.697
X198.5Y-72.429
X198.5Y-79.357
X199.0Y-66.367
X199.0Y-71.563
X199.0Y-73.295
X199.0Y-78.491
X199.0Y-80.223
X199.5Y-70.697
X199.5Y-72.429
X199.5Y-79.357
X200.0Y-66.367
X200.0Y-71.563
X200.0Y-73.295
X200.0Y-78.491
X200.0Y-80.223
X200.5Y-70.697
X200.5Y-72.429
X200.5Y-79.357
X201.0Y-66.367
X201.0Y-71.563
X201.0Y-73.295
X201.0Y-78.491
X201.0Y-80.223
X201.5Y-70.697
X201.5Y-72.429
X201.5Y-79.357
X202.0Y-66.367
X202.0Y-71.563
X202.0Y-73.295
X202.0Y-78.491
X202.0Y-80.223
X202.225Y-76.759
X202.341Y-70.856
X202.341Y-72.588
X202.341Y-76.052
X202.341Y-77.784
X202.341Y-79.516
X203.0Y-80.223
X204.0Y-80.223
X205.0Y-80.223
X206.0Y-80.223
T2
X171.1Y-67.7
X171.1Y-70.24
X204.7Y-68.125
X204.7Y-70.665
X204.7Y-75.225
X204.7Y-77.765
M30
