M48
METRIC,TZ
T1C0.300
T2C1.000
%
G90
G05
T1
X170001Y-73295
X170001Y-75027
X170001Y-76759
X170001Y-78491
X170001Y-80223
X170501Y-77625
X170501Y-79357
X171001Y-78491
X171001Y-80223
X171501Y-77625
X171501Y-79357
X172001Y-78491
X172001Y-80223
X172501Y-77625
X172501Y-79357
X177800Y-70300
X177900Y-67600
X186726Y-77625
X186726Y-79357
X187001Y-76759
X187001Y-78491
X187001Y-80223
X187501Y-77625
X187501Y-79357
X188001Y-76759
X188001Y-78491
X188001Y-80223
X188501Y-79357
X189001Y-73295
X189001Y-78491
X189001Y-80223
X189501Y-72429
X189501Y-79357
X190001Y-73295
X190001Y-80223
X190501Y-67233
X190501Y-68965
X190501Y-72429
X190501Y-79582
X191001Y-66367
X191001Y-68099
X191001Y-73295
X191001Y-80223
X191501Y-67233
X191501Y-68965
X191501Y-72429
X191726Y-79357
X192001Y-66367
X192001Y-68099
X192001Y-73295
X192001Y-78491
X192001Y-80223
X192501Y-67233
X192501Y-68965
X192501Y-72429
X192501Y-79357
X192841Y-78650
X192841Y-80382
X193001Y-66367
X193001Y-68099
X193001Y-73295
X193501Y-67233
X193501Y-68965
X193501Y-72429
X194001Y-66367
X194001Y-68099
X194001Y-73295
X194501Y-67233
X194501Y-68965
X194501Y-72429
X195001Y-66367
X195500Y-67700
X195500Y-68700
X195500Y-69700
X195500Y-70700
X196001Y-66367
X196500Y-67700
X196500Y-68700
X196500Y-69700
X196500Y-70700
X197001Y-66367
X197501Y-79357
X198001Y-66367
X198001Y-71563
X198001Y-73295
X198001Y-78491
X198001Y-80223
X198501Y-70697
X198501Y-72429
X198501Y-79357
X199001Y-66367
X199001Y-71563
X199001Y-73295
X199001Y-78491
X199001Y-80223
X199501Y-70697
X199501Y-72429
X199501Y-79357
X200001Y-66367
X200001Y-71563
X200001Y-73295
X200001Y-78491
X200001Y-80223
X200501Y-70697
X200501Y-72429
X200501Y-79357
X201001Y-66367
X201001Y-71563
X201001Y-73295
X201001Y-78491
X201001Y-80223
X201501Y-70697
X201501Y-72429
X201501Y-79357
X202001Y-66367
X202001Y-71563
X202001Y-73295
X202001Y-78491
X202001Y-80223
X202226Y-76759
X202341Y-70856
X202341Y-72588
X202341Y-76052
X202341Y-77784
X202341Y-79516
X203001Y-80223
X204001Y-80223
X205001Y-80223
X206001Y-80223
T2
X171100Y-67700
X171100Y-70240
X204700Y-68125
X204700Y-70665
X204700Y-75225
X204700Y-77765
M30
