%TF.GenerationSoftware,KiCad,Pcbnew,10.0.6-1.fc44*%
%TF.CreationDate,2026-09-10T17:36:19+07:00*%
%TF.ProjectId,Power_Converter,506f7765-725f-4436-9f6e-766572746572,rev?*%
%TF.SameCoordinates,Original*%
%TF.FileFunction,Copper,L1,Top*%
%TF.FilePolarity,Positive*%
%FSLAX46Y46*%
G04 Gerber Fmt 4.6, Leading zero omitted, Abs format (unit mm)*
G04 Created by KiCad (PCBNEW 10.0.6-1.fc44) date 2026-09-10 17:36:19*
%MOMM*%
%LPD*%
G01*
G04 APERTURE LIST*
G04 Aperture macros list*
%AMRoundRect*
0 Rectangle with rounded corners*
0 $1 Rounding radius*
0 $2 $3 $4 $5 $6 $7 $8 $9 X,Y pos of 4 corners*
0 Add a 4 corners polygon primitive as box body*
4,1,4,$2,$3,$4,$5,$6,$7,$8,$9,$2,$3,0*
0 Add four circle primitives for the rounded corners*
1,1,$1+$1,$2,$3*
1,1,$1+$1,$4,$5*
1,1,$1+$1,$6,$7*
1,1,$1+$1,$8,$9*
0 Add four rect primitives between the rounded corners*
20,1,$1+$1,$2,$3,$4,$5,0*
20,1,$1+$1,$4,$5,$6,$7,0*
20,1,$1+$1,$6,$7,$8,$9,0*
20,1,$1+$1,$8,$9,$2,$3,0*%
G04 Aperture macros list end*
%TA.AperFunction,EtchedComponent*%
%ADD10C,0.127000*%
%TD*%
%TA.AperFunction,SMDPad,CuDef*%
%ADD11RoundRect,0.250000X-0.450000X0.262500X-0.450000X-0.262500X0.450000X-0.262500X0.450000X0.262500X0*%
%TD*%
%TA.AperFunction,SMDPad,CuDef*%
%ADD12RoundRect,0.375000X-0.000010X-0.000010X0.000010X-0.000010X0.000010X0.000010X-0.000010X0.000010X0*%
%TD*%
%TA.AperFunction,SMDPad,CuDef*%
%ADD13RoundRect,0.250000X-0.475000X0.250000X-0.475000X-0.250000X0.475000X-0.250000X0.475000X0.250000X0*%
%TD*%
%TA.AperFunction,ComponentPad*%
%ADD14R,1.700000X1.700000*%
%TD*%
%TA.AperFunction,ComponentPad*%
%ADD15C,1.700000*%
%TD*%
%TA.AperFunction,SMDPad,CuDef*%
%ADD16RoundRect,0.250000X0.262500X0.450000X-0.262500X0.450000X-0.262500X-0.450000X0.262500X-0.450000X0*%
%TD*%
%TA.AperFunction,SMDPad,CuDef*%
%ADD17RoundRect,0.081250X-0.528750X-0.243750X0.528750X-0.243750X0.528750X0.243750X-0.528750X0.243750X0*%
%TD*%
%TA.AperFunction,SMDPad,CuDef*%
%ADD18RoundRect,0.250000X-0.250000X-0.475000X0.250000X-0.475000X0.250000X0.475000X-0.250000X0.475000X0*%
%TD*%
%TA.AperFunction,SMDPad,CuDef*%
%ADD19RoundRect,0.200000X0.200000X0.275000X-0.200000X0.275000X-0.200000X-0.275000X0.200000X-0.275000X0*%
%TD*%
%TA.AperFunction,SMDPad,CuDef*%
%ADD20R,2.200000X0.600000*%
%TD*%
%TA.AperFunction,SMDPad,CuDef*%
%ADD21RoundRect,0.250000X0.475000X-0.250000X0.475000X0.250000X-0.475000X0.250000X-0.475000X-0.250000X0*%
%TD*%
%TA.AperFunction,SMDPad,CuDef*%
%ADD22RoundRect,0.225000X-0.225000X-0.250000X0.225000X-0.250000X0.225000X0.250000X-0.225000X0.250000X0*%
%TD*%
%TA.AperFunction,SMDPad,CuDef*%
%ADD23RoundRect,0.200000X-0.200000X-0.275000X0.200000X-0.275000X0.200000X0.275000X-0.200000X0.275000X0*%
%TD*%
%TA.AperFunction,ViaPad*%
%ADD24C,0.600000*%
%TD*%
%TA.AperFunction,Conductor*%
%ADD25C,1.000000*%
%TD*%
%TA.AperFunction,Conductor*%
%ADD26C,0.200000*%
%TD*%
%ADD27C,0.300000*%
%ADD28C,0.350000*%
G04 APERTURE END LIST*
D10*
%TO.C,IC1*%
X182800000Y-67905000D02*
X181200000Y-67905000D01*
X181200000Y-71105000D01*
X182800000Y-71105000D01*
X182800000Y-67905000D01*
%TA.AperFunction,EtchedComponent*%
G36*
X182800000Y-71105000D02*
G01*
X181200000Y-71105000D01*
X181200000Y-67905000D01*
X182800000Y-67905000D01*
X182800000Y-71105000D01*
G37*
%TD.AperFunction*%
%TD*%
D11*
%TO.P,R3,1*%
%TO.N,Net-(IC1-FB)*%
X187400000Y-72975000D03*
%TO.P,R3,2*%
%TO.N,/5V_OUT*%
X187400000Y-74800000D03*
%TD*%
D12*
%TO.P,TP3,1,1_1*%
%TO.N,GND*%
X190700000Y-78600000D03*
%TD*%
D13*
%TO.P,C6,1*%
%TO.N,/Vin*%
X176200000Y-68850000D03*
%TO.P,C6,2*%
%TO.N,GND*%
X176200000Y-70750000D03*
%TD*%
D14*
%TO.P,J1,1,Pin_1_1*%
%TO.N,/Vin*%
X171100000Y-67700000D03*
D15*
%TO.P,J1,2,Pin_2_2*%
%TO.N,GND*%
X171100000Y-70240000D03*
%TD*%
D16*
%TO.P,R4,1*%
%TO.N,Net-(IC1-FB)*%
X185100000Y-73200000D03*
%TO.P,R4,2*%
%TO.N,GND*%
X183275000Y-73200000D03*
%TD*%
D13*
%TO.P,C8,1*%
%TO.N,/5V_OUT*%
X194000000Y-74850000D03*
%TO.P,C8,2*%
%TO.N,GND*%
X194000000Y-76750000D03*
%TD*%
%TO.P,C2,1*%
%TO.N,/Vin*%
X174025000Y-68850000D03*
%TO.P,C2,2*%
%TO.N,GND*%
X174025000Y-70750000D03*
%TD*%
D14*
%TO.P,J2,1,Pin_1_1*%
%TO.N,/3v3_OUT*%
X204700000Y-75225000D03*
D15*
%TO.P,J2,2,Pin_2_2*%
%TO.N,GND*%
X204700000Y-77765000D03*
%TD*%
D17*
%TO.P,U1,1,VIN_1*%
%TO.N,/5V_OUT*%
X196000000Y-75000000D03*
%TO.P,U1,2,GND_2*%
%TO.N,GND*%
X196000000Y-75940000D03*
%TO.P,U1,3,EN_3*%
%TO.N,Net-(U1-EN)*%
X196000000Y-76880000D03*
%TO.P,U1,4*%
%TO.N,N/C*%
X198490000Y-76880000D03*
%TO.P,U1,5,VOUT_5*%
%TO.N,/3v3_OUT*%
X198490000Y-75000000D03*
%TD*%
D18*
%TO.P,C4,1*%
%TO.N,Net-(IC1-COMP)*%
X187075000Y-70600000D03*
%TO.P,C4,2*%
%TO.N,Net-(C4-Pad2)*%
X188975000Y-70600000D03*
%TD*%
D14*
%TO.P,J3,1,Pin_1_1*%
%TO.N,/5V_OUT*%
X204700000Y-68125000D03*
D15*
%TO.P,J3,2,Pin_2_2*%
%TO.N,GND*%
X204700000Y-70665000D03*
%TD*%
D19*
%TO.P,R2,1*%
%TO.N,GND*%
X192400000Y-70600000D03*
%TO.P,R2,2*%
%TO.N,Net-(C4-Pad2)*%
X190750000Y-70600000D03*
%TD*%
D13*
%TO.P,C5,1*%
%TO.N,/5V_OUT*%
X191896500Y-74921000D03*
%TO.P,C5,2*%
%TO.N,GND*%
X191896500Y-76821000D03*
%TD*%
D20*
%TO.P,IC1,1,BS_1*%
%TO.N,Net-(IC1-BS)*%
X179400000Y-67600000D03*
%TO.P,IC1,2,IN_2*%
%TO.N,/Vin*%
X179400000Y-68870000D03*
%TO.P,IC1,3,SW_3*%
%TO.N,Net-(IC1-SW)*%
X179400000Y-70140000D03*
%TO.P,IC1,4,GND_4*%
%TO.N,GND*%
X179400000Y-71410000D03*
%TO.P,IC1,5,FB_5*%
%TO.N,Net-(IC1-FB)*%
X184600000Y-71410000D03*
%TO.P,IC1,6,COMP_6*%
%TO.N,Net-(IC1-COMP)*%
X184600000Y-70140000D03*
%TO.P,IC1,7,EN_7*%
%TO.N,Net-(IC1-EN)*%
X184600000Y-68870000D03*
%TO.P,IC1,8,SS_8*%
%TO.N,Net-(IC1-SS)*%
X184600000Y-67600000D03*
%TD*%
D21*
%TO.P,C9,1*%
%TO.N,GND*%
X200600000Y-76800000D03*
%TO.P,C9,2*%
%TO.N,/3v3_OUT*%
X200600000Y-74900000D03*
%TD*%
D22*
%TO.P,C3,1*%
%TO.N,Net-(IC1-SS)*%
X186825000Y-67400000D03*
%TO.P,C3,2*%
%TO.N,GND*%
X188375000Y-67400000D03*
%TD*%
D16*
%TO.P,R5,1*%
%TO.N,Net-(U1-EN)*%
X196112500Y-79000000D03*
%TO.P,R5,2*%
%TO.N,GND*%
X194287500Y-79000000D03*
%TD*%
D13*
%TO.P,C7,1*%
%TO.N,/5V_OUT*%
X189696500Y-74871000D03*
%TO.P,C7,2*%
%TO.N,GND*%
X189696500Y-76771000D03*
%TD*%
D12*
%TO.P,TP1,1,1_1*%
%TO.N,/5V_OUT*%
X202200000Y-68100000D03*
%TD*%
D23*
%TO.P,R1,1*%
%TO.N,/Vin*%
X181100000Y-66100000D03*
%TO.P,R1,2*%
%TO.N,Net-(IC1-EN)*%
X182750000Y-66100000D03*
%TD*%
D12*
%TO.P,TP2,1,1_1*%
%TO.N,/3v3_OUT*%
X202200000Y-74800000D03*
%TD*%
D24*
%TO.N,GND*%
X206000500Y-80222925D03*
X205000500Y-80222925D03*
X204000500Y-80222925D03*
X203000500Y-80222925D03*
X202000500Y-80222925D03*
X201000500Y-80222925D03*
X200000500Y-80222925D03*
X199000500Y-80222925D03*
X198000500Y-80222925D03*
X192841401Y-80382024D03*
X192000500Y-80222925D03*
X191000500Y-80222925D03*
X190000500Y-80222925D03*
X189000500Y-80222925D03*
X188000500Y-80222925D03*
X187000500Y-80222925D03*
X172000500Y-80222925D03*
X171000500Y-80222925D03*
X170000500Y-80222925D03*
X202341401Y-79515999D03*
X201500500Y-79356900D03*
X200500500Y-79356900D03*
X199500500Y-79356900D03*
X198500500Y-79356900D03*
X197500500Y-79356900D03*
X192500500Y-79356900D03*
X191725500Y-79356900D03*
X190500500Y-79581900D03*
X189500500Y-79356900D03*
X188500500Y-79356900D03*
X187500500Y-79356900D03*
X186725500Y-79356900D03*
X172500500Y-79356900D03*
X171500500Y-79356900D03*
X170500500Y-79356900D03*
X202000500Y-78490875D03*
X201000500Y-78490875D03*
X200000500Y-78490875D03*
X199000500Y-78490875D03*
X198000500Y-78490875D03*
X192841401Y-78649974D03*
X192000500Y-78490875D03*
X189000500Y-78490875D03*
X188000500Y-78490875D03*
X187000500Y-78490875D03*
X172000500Y-78490875D03*
X171000500Y-78490875D03*
X170000500Y-78490875D03*
X202341401Y-77783949D03*
X187500500Y-77624850D03*
X186725500Y-77624850D03*
X172500500Y-77624850D03*
X171500500Y-77624850D03*
X170500500Y-77624850D03*
X202225500Y-76758825D03*
X188000500Y-76758825D03*
X187000500Y-76758825D03*
X170000500Y-76758825D03*
X202341401Y-76051899D03*
X170000500Y-75026775D03*
X202000500Y-73294725D03*
X201000500Y-73294725D03*
X200000500Y-73294725D03*
X199000500Y-73294725D03*
X198000500Y-73294725D03*
X194000500Y-73294725D03*
X193000500Y-73294725D03*
X192000500Y-73294725D03*
X191000500Y-73294725D03*
X190000500Y-73294725D03*
X189000500Y-73294725D03*
X170000500Y-73294725D03*
X202341401Y-72587799D03*
X201500500Y-72428700D03*
X200500500Y-72428700D03*
X199500500Y-72428700D03*
X198500500Y-72428700D03*
X194500500Y-72428700D03*
X193500500Y-72428700D03*
X192500500Y-72428700D03*
X191500500Y-72428700D03*
X190500500Y-72428700D03*
X189500500Y-72428700D03*
X202000500Y-71562675D03*
X201000500Y-71562675D03*
X200000500Y-71562675D03*
X199000500Y-71562675D03*
X198000500Y-71562675D03*
X202341401Y-70855749D03*
X201500500Y-70696650D03*
X200500500Y-70696650D03*
X199500500Y-70696650D03*
X198500500Y-70696650D03*
X194500500Y-68964600D03*
X193500500Y-68964600D03*
X192500500Y-68964600D03*
X191500500Y-68964600D03*
X190500500Y-68964600D03*
X194000500Y-68098575D03*
X193000500Y-68098575D03*
X192000500Y-68098575D03*
X191000500Y-68098575D03*
X194500500Y-67232550D03*
X193500500Y-67232550D03*
X192500500Y-67232550D03*
X191500500Y-67232550D03*
X190500500Y-67232550D03*
X202000500Y-66366525D03*
X201000500Y-66366525D03*
X200000500Y-66366525D03*
X199000500Y-66366525D03*
X198000500Y-66366525D03*
X197000500Y-66366525D03*
X196000500Y-66366525D03*
X195000500Y-66366525D03*
X194000500Y-66366525D03*
X193000500Y-66366525D03*
X192000500Y-66366525D03*
X191000500Y-66366525D03*
%TO.N,/5V_OUT*%
X196500000Y-67700000D03*
X196500000Y-70700000D03*
X196500000Y-69700000D03*
X195500000Y-68700000D03*
X195500000Y-69700000D03*
X195500000Y-67700000D03*
X195500000Y-70700000D03*
X196500000Y-68700000D03*
%TO.N,Net-(IC1-BS)*%
X177900000Y-67600000D03*
%TO.N,Net-(IC1-SW)*%
X177800000Y-70300000D03*
%TD*%
%TO.N,/3v3_OUT*%
D25*
X202200000Y-74800000D02*
X204275000Y-74800000D01*
X204275000Y-74800000D02*
X204700000Y-75225000D01*
X200600000Y-74900000D02*
X202100000Y-74900000D01*
X202100000Y-74900000D02*
X202200000Y-74800000D01*
X198490000Y-75000000D02*
X200500000Y-75000000D01*
X200500000Y-75000000D02*
X200600000Y-74900000D01*
%TO.N,Net-(IC1-FB)*%
D26*
X184600000Y-71410000D02*
X184600000Y-72700000D01*
X185425000Y-72975000D02*
X187400000Y-72975000D01*
X185200000Y-73200000D02*
X185425000Y-72975000D01*
X185100000Y-73200000D02*
X185200000Y-73200000D01*
X184600000Y-72700000D02*
X185100000Y-73200000D01*
%TO.N,GND*%
X176860000Y-71410000D02*
X179400000Y-71410000D01*
X193929000Y-76821000D02*
X194000000Y-76750000D01*
X194000000Y-78712500D02*
X194287500Y-79000000D01*
X174025000Y-70750000D02*
X173850000Y-70750000D01*
X189696500Y-76771000D02*
X191846500Y-76771000D01*
X191896500Y-76821000D02*
X193929000Y-76821000D01*
X196000000Y-75940000D02*
X194810000Y-75940000D01*
X176200000Y-70750000D02*
X176860000Y-71410000D01*
X194810000Y-75940000D02*
X194000000Y-76750000D01*
X194000000Y-76750000D02*
X194000000Y-78712500D01*
X203735000Y-76800000D02*
X204700000Y-77765000D01*
X200600000Y-76800000D02*
X203735000Y-76800000D01*
X173340000Y-70240000D02*
X171100000Y-70240000D01*
X174025000Y-70750000D02*
X176200000Y-70750000D01*
X191846500Y-76771000D02*
X191896500Y-76821000D01*
X173850000Y-70750000D02*
X173340000Y-70240000D01*
%TO.N,Net-(U1-EN)*%
X196000000Y-76880000D02*
X196000000Y-78887500D01*
X196000000Y-78887500D02*
X196112500Y-79000000D01*
%TO.N,Net-(IC1-COMP)*%
X186615000Y-70140000D02*
X187075000Y-70600000D01*
X184600000Y-70140000D02*
X186615000Y-70140000D01*
%TO.N,Net-(C4-Pad2)*%
X188975000Y-70600000D02*
X190750000Y-70600000D01*
%TO.N,Net-(IC1-BS)*%
X177900000Y-67600000D02*
X179400000Y-67600000D01*
%TO.N,Net-(IC1-SW)*%
X177960000Y-70140000D02*
X177800000Y-70300000D01*
X179400000Y-70140000D02*
X177960000Y-70140000D01*
%TO.N,Net-(IC1-EN)*%
X189700000Y-68400000D02*
X189700000Y-66300000D01*
X184600000Y-68870000D02*
X189230000Y-68870000D01*
X189230000Y-68870000D02*
X189700000Y-68400000D01*
X189700000Y-66300000D02*
X189500000Y-66100000D01*
X189500000Y-66100000D02*
X182750000Y-66100000D01*
%TO.N,Net-(IC1-SS)*%
X186625000Y-67600000D02*
X186825000Y-67400000D01*
X184600000Y-67600000D02*
X186625000Y-67600000D01*
%TD*%
%TA.AperFunction,Conductor*%
%TO.N,/5V_OUT*%
G36*
X205511971Y-67102381D02*
G01*
X205590618Y-67118024D01*
X205635308Y-67136535D01*
X205691626Y-67174166D01*
X205725833Y-67208373D01*
X205763462Y-67264688D01*
X205781976Y-67309387D01*
X205797617Y-67388019D01*
X205800000Y-67412210D01*
X205800000Y-68987789D01*
X205797617Y-69011980D01*
X205781976Y-69090612D01*
X205763462Y-69135311D01*
X205725836Y-69191623D01*
X205691623Y-69225836D01*
X205635311Y-69263462D01*
X205590612Y-69281976D01*
X205511980Y-69297617D01*
X205487789Y-69300000D01*
X197000000Y-69300000D01*
X197000000Y-75187789D01*
X196997617Y-75211980D01*
X196981976Y-75290612D01*
X196963462Y-75335311D01*
X196925836Y-75391623D01*
X196891622Y-75425836D01*
X196835312Y-75463460D01*
X196790635Y-75481970D01*
X196789540Y-75482188D01*
X196719947Y-75475972D01*
X196695250Y-75462874D01*
X196690734Y-75459780D01*
X196594375Y-75417233D01*
X196570819Y-75414500D01*
X196570816Y-75414500D01*
X195429184Y-75414500D01*
X195429180Y-75414500D01*
X195405625Y-75417233D01*
X195405623Y-75417233D01*
X195309269Y-75459779D01*
X195309267Y-75459780D01*
X195309265Y-75459781D01*
X195309264Y-75459781D01*
X195309262Y-75459783D01*
X195305365Y-75463681D01*
X195244042Y-75497166D01*
X195217684Y-75500000D01*
X186712211Y-75500000D01*
X186688020Y-75497617D01*
X186609387Y-75481976D01*
X186564689Y-75463462D01*
X186508373Y-75425833D01*
X186474166Y-75391626D01*
X186436535Y-75335308D01*
X186418024Y-75290618D01*
X186402381Y-75211971D01*
X186400000Y-75187789D01*
X186400000Y-74312210D01*
X186402381Y-74288029D01*
X186418025Y-74209379D01*
X186436534Y-74164693D01*
X186474168Y-74108370D01*
X186508370Y-74074168D01*
X186564693Y-74036534D01*
X186609379Y-74018025D01*
X186688028Y-74002381D01*
X186712211Y-74000000D01*
X195100000Y-74000000D01*
X195100000Y-67412210D01*
X195102381Y-67388029D01*
X195118025Y-67309379D01*
X195136534Y-67264693D01*
X195174168Y-67208370D01*
X195208370Y-67174168D01*
X195264693Y-67136534D01*
X195309379Y-67118025D01*
X195388028Y-67102381D01*
X195412211Y-67100000D01*
X205487789Y-67100000D01*
X205511971Y-67102381D01*
G37*
%TD.AperFunction*%
%TD*%
%TA.AperFunction,Conductor*%
%TO.N,/Vin*%
G36*
X181511971Y-65402381D02*
G01*
X181590618Y-65418024D01*
X181635308Y-65436535D01*
X181691626Y-65474166D01*
X181725833Y-65508373D01*
X181763462Y-65564688D01*
X181781976Y-65609387D01*
X181797617Y-65688019D01*
X181800000Y-65712210D01*
X181800000Y-66487789D01*
X181797617Y-66511980D01*
X181781976Y-66590612D01*
X181763462Y-66635311D01*
X181725836Y-66691623D01*
X181691623Y-66725836D01*
X181635311Y-66763462D01*
X181590612Y-66781976D01*
X181511980Y-66797617D01*
X181487789Y-66800000D01*
X177100000Y-66800000D01*
X177100000Y-68300000D01*
X180487789Y-68300000D01*
X180511971Y-68302381D01*
X180590618Y-68318024D01*
X180635308Y-68336535D01*
X180691626Y-68374166D01*
X180725833Y-68408373D01*
X180763462Y-68464688D01*
X180781976Y-68509387D01*
X180797617Y-68588019D01*
X180800000Y-68612210D01*
X180800000Y-69287789D01*
X180797617Y-69311980D01*
X180781976Y-69390612D01*
X180763462Y-69435311D01*
X180725836Y-69491623D01*
X180691623Y-69525836D01*
X180635311Y-69563462D01*
X180590612Y-69581976D01*
X180511980Y-69597617D01*
X180487789Y-69600000D01*
X172912211Y-69600000D01*
X172888020Y-69597617D01*
X172809387Y-69581976D01*
X172764689Y-69563462D01*
X172708373Y-69525833D01*
X172674166Y-69491626D01*
X172636535Y-69435308D01*
X172618024Y-69390618D01*
X172602381Y-69311971D01*
X172600000Y-69287789D01*
X172600000Y-68800000D01*
X172300000Y-68800000D01*
X170312211Y-68800000D01*
X170288020Y-68797617D01*
X170209387Y-68781976D01*
X170164689Y-68763462D01*
X170108373Y-68725833D01*
X170074166Y-68691626D01*
X170036535Y-68635308D01*
X170018024Y-68590618D01*
X170002381Y-68511971D01*
X170000000Y-68487789D01*
X170000000Y-65712210D01*
X170002381Y-65688029D01*
X170018025Y-65609379D01*
X170036534Y-65564693D01*
X170074168Y-65508370D01*
X170108370Y-65474168D01*
X170164693Y-65436534D01*
X170209379Y-65418025D01*
X170288028Y-65402381D01*
X170312211Y-65400000D01*
X181487789Y-65400000D01*
X181511971Y-65402381D01*
G37*
%TD.AperFunction*%
%TD*%
%TA.AperFunction,Conductor*%
%TO.N,GND*%
G36*
X169909095Y-65170185D02*
G01*
X169954850Y-65222989D01*
X169964794Y-65292147D01*
X169935769Y-65355703D01*
X169929737Y-65362181D01*
X169928857Y-65363060D01*
X169903299Y-65394201D01*
X169865670Y-65450517D01*
X169865659Y-65450535D01*
X169846680Y-65486045D01*
X169846674Y-65486057D01*
X169828166Y-65530741D01*
X169828166Y-65530742D01*
X169816470Y-65569297D01*
X169816469Y-65569300D01*
X169800831Y-65647921D01*
X169797872Y-65667872D01*
X169797868Y-65667904D01*
X169795491Y-65692049D01*
X169795488Y-65692082D01*
X169794962Y-65702792D01*
X169794500Y-65712210D01*
X169794500Y-68487789D01*
X169794905Y-68496032D01*
X169795488Y-68507917D01*
X169795491Y-68507948D01*
X169797868Y-68532094D01*
X169797872Y-68532126D01*
X169800829Y-68552062D01*
X169816472Y-68630709D01*
X169822485Y-68650532D01*
X169828166Y-68669259D01*
X169828168Y-68669264D01*
X169828169Y-68669267D01*
X169846675Y-68713944D01*
X169846682Y-68713960D01*
X169865667Y-68749475D01*
X169865680Y-68749497D01*
X169903291Y-68805784D01*
X169903300Y-68805797D01*
X169903306Y-68805804D01*
X169928855Y-68836935D01*
X169963058Y-68871139D01*
X169963063Y-68871143D01*
X169994204Y-68896700D01*
X170050520Y-68934329D01*
X170086049Y-68953320D01*
X170130747Y-68971834D01*
X170130750Y-68971835D01*
X170130755Y-68971837D01*
X170169291Y-68983526D01*
X170169295Y-68983526D01*
X170169296Y-68983527D01*
X170247929Y-68999168D01*
X170267874Y-69002127D01*
X170292065Y-69004510D01*
X170312211Y-69005500D01*
X172270500Y-69005500D01*
X172337539Y-69025185D01*
X172383294Y-69077989D01*
X172394500Y-69129500D01*
X172394500Y-69287789D01*
X172395006Y-69298100D01*
X172395488Y-69307917D01*
X172395491Y-69307948D01*
X172397868Y-69332094D01*
X172397872Y-69332126D01*
X172400829Y-69352062D01*
X172416472Y-69430709D01*
X172422485Y-69450532D01*
X172428166Y-69469259D01*
X172428168Y-69469264D01*
X172428169Y-69469267D01*
X172446675Y-69513944D01*
X172446682Y-69513960D01*
X172465667Y-69549475D01*
X172465680Y-69549497D01*
X172474343Y-69562461D01*
X172503300Y-69605797D01*
X172503306Y-69605804D01*
X172528855Y-69636935D01*
X172563058Y-69671139D01*
X172563063Y-69671143D01*
X172594204Y-69696700D01*
X172650520Y-69734329D01*
X172686049Y-69753320D01*
X172730747Y-69771834D01*
X172730750Y-69771835D01*
X172730755Y-69771837D01*
X172769291Y-69783526D01*
X172769295Y-69783526D01*
X172769296Y-69783527D01*
X172847929Y-69799168D01*
X172867874Y-69802127D01*
X172892065Y-69804510D01*
X172912211Y-69805500D01*
X177292798Y-69805500D01*
X177359837Y-69825185D01*
X177405592Y-69877989D01*
X177415536Y-69947147D01*
X177400184Y-69991501D01*
X177333610Y-70106806D01*
X177333609Y-70106809D01*
X177308720Y-70199697D01*
X177299500Y-70234105D01*
X177299500Y-70365891D01*
X177333608Y-70493187D01*
X177348069Y-70518233D01*
X177348070Y-70518235D01*
X177348777Y-70519459D01*
X177399500Y-70607314D01*
X177492686Y-70700500D01*
X177591521Y-70757563D01*
X177605944Y-70765890D01*
X177606814Y-70766392D01*
X177734108Y-70800500D01*
X177734110Y-70800500D01*
X177865890Y-70800500D01*
X177865892Y-70800500D01*
X177993186Y-70766392D01*
X178107314Y-70700500D01*
X178126578Y-70681235D01*
X178154821Y-70660090D01*
X178173248Y-70650028D01*
X178231562Y-70634866D01*
X178238295Y-70634806D01*
X178263581Y-70637183D01*
X178280251Y-70640500D01*
X178280252Y-70640500D01*
X180519750Y-70640500D01*
X180523876Y-70640500D01*
X180531742Y-70638114D01*
X180534568Y-70637552D01*
X180566258Y-70631249D01*
X180572354Y-70630648D01*
X180572386Y-70630639D01*
X180583311Y-70627902D01*
X180593515Y-70618654D01*
X180644552Y-70584552D01*
X180688867Y-70518231D01*
X180688867Y-70518230D01*
X180696195Y-70507264D01*
X180696765Y-70507645D01*
X180703933Y-70495343D01*
X180709269Y-70488722D01*
X180766658Y-70448874D01*
X180836484Y-70446378D01*
X180896573Y-70482029D01*
X180926492Y-70537987D01*
X180927671Y-70542972D01*
X180931000Y-70571512D01*
X180931000Y-71105004D01*
X180949093Y-71195972D01*
X180950043Y-71205612D01*
X180950633Y-71206859D01*
X180951409Y-71207613D01*
X180951474Y-71207939D01*
X180951475Y-71207940D01*
X180951475Y-71207941D01*
X180951476Y-71207942D01*
X181009788Y-71295212D01*
X181097058Y-71353524D01*
X181097059Y-71353524D01*
X181097060Y-71353525D01*
X181102742Y-71354655D01*
X181103465Y-71355357D01*
X181109027Y-71355905D01*
X181197049Y-71373413D01*
X181199261Y-71373909D01*
X181199997Y-71374000D01*
X182800001Y-71374000D01*
X182804125Y-71374000D01*
X182811984Y-71371616D01*
X182822717Y-71369480D01*
X182834623Y-71367113D01*
X182890971Y-71355905D01*
X182897071Y-71355304D01*
X182897107Y-71355294D01*
X182908022Y-71352559D01*
X182918225Y-71343311D01*
X182990212Y-71295212D01*
X183048524Y-71207942D01*
X183069000Y-71105000D01*
X183069000Y-71090252D01*
X183299500Y-71090252D01*
X183299500Y-71210300D01*
X183299500Y-71729752D01*
X183311131Y-71788229D01*
X183311132Y-71788230D01*
X183314024Y-71793641D01*
X183317917Y-71798385D01*
X183355447Y-71854552D01*
X183409930Y-71890956D01*
X183411613Y-71892081D01*
X183416358Y-71895975D01*
X183421770Y-71898868D01*
X183472612Y-71908981D01*
X183475337Y-71909703D01*
X183480249Y-71910500D01*
X183480250Y-71910500D01*
X183480252Y-71910500D01*
X184157670Y-71910500D01*
X184192606Y-71915523D01*
X184207604Y-71919927D01*
X184266355Y-71957672D01*
X184267542Y-71959041D01*
X184295018Y-72013902D01*
X184296663Y-72021460D01*
X184299500Y-72047831D01*
X184299500Y-72739563D01*
X184313151Y-72790512D01*
X184319977Y-72815987D01*
X184336120Y-72843945D01*
X184345258Y-72866542D01*
X184356890Y-72879921D01*
X184357496Y-72880971D01*
X184365753Y-72898231D01*
X184378654Y-72931593D01*
X184387000Y-72976316D01*
X184387000Y-73704269D01*
X184389157Y-73727275D01*
X184389312Y-73728929D01*
X184389478Y-73732499D01*
X184389853Y-73734699D01*
X184389853Y-73734701D01*
X184434706Y-73862880D01*
X184434707Y-73862882D01*
X184515350Y-73972150D01*
X184621534Y-74050517D01*
X184624618Y-74052793D01*
X184752799Y-74097646D01*
X184752803Y-74097647D01*
X184771242Y-74099375D01*
X184783230Y-74100500D01*
X184783234Y-74100500D01*
X184783239Y-74100500D01*
X185416770Y-74100500D01*
X185416771Y-74100500D01*
X185441420Y-74098188D01*
X185444998Y-74098020D01*
X185447199Y-74097646D01*
X185447201Y-74097646D01*
X185511290Y-74075219D01*
X185575382Y-74052793D01*
X185684650Y-73972150D01*
X185765293Y-73862882D01*
X185781532Y-73816473D01*
X185787718Y-73798794D01*
X185787719Y-73798790D01*
X185789220Y-73794500D01*
X185810146Y-73734701D01*
X185810146Y-73734699D01*
X185810520Y-73732499D01*
X185810688Y-73728919D01*
X185813000Y-73704270D01*
X185813000Y-73417329D01*
X185818023Y-73382393D01*
X185822427Y-73367395D01*
X185860172Y-73308644D01*
X185861541Y-73307457D01*
X185916420Y-73279977D01*
X185923979Y-73278333D01*
X185950332Y-73275500D01*
X186380200Y-73275500D01*
X186415136Y-73280523D01*
X186430134Y-73284927D01*
X186488906Y-73322696D01*
X186496241Y-73331160D01*
X186519573Y-73371411D01*
X186529402Y-73399500D01*
X186547206Y-73450381D01*
X186627851Y-73559651D01*
X186663733Y-73586133D01*
X186705984Y-73641780D01*
X186711443Y-73711436D01*
X186678376Y-73772986D01*
X186617282Y-73806887D01*
X186614293Y-73807520D01*
X186569300Y-73816470D01*
X186569295Y-73816471D01*
X186530742Y-73828166D01*
X186530741Y-73828166D01*
X186486057Y-73846674D01*
X186486045Y-73846680D01*
X186450535Y-73865659D01*
X186450517Y-73865670D01*
X186394201Y-73903299D01*
X186363060Y-73928857D01*
X186328857Y-73963060D01*
X186303299Y-73994201D01*
X186265670Y-74050517D01*
X186265659Y-74050535D01*
X186246680Y-74086045D01*
X186246674Y-74086057D01*
X186228166Y-74130741D01*
X186228166Y-74130742D01*
X186216470Y-74169297D01*
X186216469Y-74169300D01*
X186200831Y-74247921D01*
X186197872Y-74267872D01*
X186197868Y-74267904D01*
X186195491Y-74292049D01*
X186195488Y-74292082D01*
X186195258Y-74296769D01*
X186194500Y-74312210D01*
X186194500Y-75187789D01*
X186195006Y-75198100D01*
X186195488Y-75207917D01*
X186195491Y-75207948D01*
X186197868Y-75232094D01*
X186197872Y-75232126D01*
X186200829Y-75252062D01*
X186216472Y-75330709D01*
X186222485Y-75350532D01*
X186228166Y-75369259D01*
X186228168Y-75369264D01*
X186228169Y-75369267D01*
X186246675Y-75413944D01*
X186246682Y-75413960D01*
X186263090Y-75444655D01*
X186265669Y-75449479D01*
X186265672Y-75449483D01*
X186265680Y-75449497D01*
X186299774Y-75500520D01*
X186303300Y-75505797D01*
X186306690Y-75509927D01*
X186328855Y-75536935D01*
X186363058Y-75571139D01*
X186363063Y-75571143D01*
X186394204Y-75596700D01*
X186450520Y-75634329D01*
X186486049Y-75653320D01*
X186530747Y-75671834D01*
X186530750Y-75671835D01*
X186530755Y-75671837D01*
X186569291Y-75683526D01*
X186569295Y-75683526D01*
X186569296Y-75683527D01*
X186647929Y-75699168D01*
X186667874Y-75702127D01*
X186692065Y-75704510D01*
X186712211Y-75705500D01*
X186712223Y-75705500D01*
X195217684Y-75705500D01*
X195217685Y-75705500D01*
X195220226Y-75705363D01*
X195239653Y-75704322D01*
X195239660Y-75704321D01*
X195239664Y-75704321D01*
X195266011Y-75701488D01*
X195342528Y-75677529D01*
X195403851Y-75644044D01*
X195403855Y-75644040D01*
X195407741Y-75641919D01*
X195407808Y-75642043D01*
X195419583Y-75635710D01*
X195422709Y-75634330D01*
X195431233Y-75630565D01*
X195481319Y-75620000D01*
X196518679Y-75620000D01*
X196568763Y-75630565D01*
X196589142Y-75639563D01*
X196597367Y-75643699D01*
X196597419Y-75643601D01*
X196598958Y-75644417D01*
X196598966Y-75644422D01*
X196623663Y-75657520D01*
X196623665Y-75657520D01*
X196623666Y-75657521D01*
X196683343Y-75675222D01*
X196701665Y-75680657D01*
X196771258Y-75686873D01*
X196829665Y-75683733D01*
X196830760Y-75683515D01*
X196830761Y-75683514D01*
X196830764Y-75683514D01*
X196830765Y-75683513D01*
X196869292Y-75671821D01*
X196913969Y-75653311D01*
X196949479Y-75634329D01*
X197005789Y-75596705D01*
X197036930Y-75571149D01*
X197071144Y-75536936D01*
X197096704Y-75505792D01*
X197134330Y-75449480D01*
X197153321Y-75413949D01*
X197171835Y-75369250D01*
X197183527Y-75330703D01*
X197199168Y-75252071D01*
X197202127Y-75232126D01*
X197204510Y-75207935D01*
X197205500Y-75187789D01*
X197205500Y-74714174D01*
X197679500Y-74714174D01*
X197679500Y-75285822D01*
X197681407Y-75302256D01*
X197681662Y-75306670D01*
X197682232Y-75309374D01*
X197682233Y-75309376D01*
X197715471Y-75384650D01*
X197724781Y-75405735D01*
X197799265Y-75480219D01*
X197895626Y-75522767D01*
X197919184Y-75525500D01*
X197960155Y-75525500D01*
X197995087Y-75530521D01*
X198026901Y-75539863D01*
X198060847Y-75555733D01*
X198158182Y-75620771D01*
X198158195Y-75620778D01*
X198280072Y-75671260D01*
X198284494Y-75673352D01*
X198285225Y-75673493D01*
X198285879Y-75673621D01*
X198336708Y-75683732D01*
X198421002Y-75700500D01*
X200568996Y-75700500D01*
X200568997Y-75700500D01*
X200584170Y-75697481D01*
X200660040Y-75682389D01*
X200660041Y-75682389D01*
X200668945Y-75680617D01*
X200704328Y-75673580D01*
X200823459Y-75624234D01*
X200833850Y-75620465D01*
X200837875Y-75619204D01*
X200837876Y-75619205D01*
X200853025Y-75614462D01*
X200879538Y-75606163D01*
X200916582Y-75600500D01*
X202168997Y-75600500D01*
X202188073Y-75596705D01*
X202260040Y-75582389D01*
X202260041Y-75582389D01*
X202268945Y-75580617D01*
X202304328Y-75573580D01*
X202420404Y-75525500D01*
X202423466Y-75524231D01*
X202433847Y-75520466D01*
X202437875Y-75519204D01*
X202437876Y-75519205D01*
X202450995Y-75515097D01*
X202479538Y-75506163D01*
X202516582Y-75500500D01*
X203507670Y-75500500D01*
X203542606Y-75505523D01*
X203557604Y-75509927D01*
X203616355Y-75547672D01*
X203617542Y-75549041D01*
X203645018Y-75603902D01*
X203646663Y-75611460D01*
X203649500Y-75637831D01*
X203649500Y-76094752D01*
X203661131Y-76153229D01*
X203661132Y-76153230D01*
X203664024Y-76158641D01*
X203667917Y-76163385D01*
X203705447Y-76219552D01*
X203759930Y-76255956D01*
X203761613Y-76257081D01*
X203766358Y-76260975D01*
X203771770Y-76263868D01*
X203822612Y-76273981D01*
X203825337Y-76274703D01*
X203830249Y-76275500D01*
X205569750Y-76275500D01*
X205573876Y-76275500D01*
X205581742Y-76273114D01*
X205584568Y-76272552D01*
X205628229Y-76263868D01*
X205628229Y-76263867D01*
X205628231Y-76263867D01*
X205694552Y-76219552D01*
X205738867Y-76153231D01*
X205738867Y-76153229D01*
X205738868Y-76153229D01*
X205750072Y-76096896D01*
X205750500Y-76094931D01*
X205750500Y-74355063D01*
X205750069Y-74353081D01*
X205738868Y-74296770D01*
X205735975Y-74291358D01*
X205732081Y-74286613D01*
X205719572Y-74267892D01*
X205694552Y-74230447D01*
X205658146Y-74206121D01*
X205638385Y-74192917D01*
X205633641Y-74189024D01*
X205628230Y-74186132D01*
X205628229Y-74186131D01*
X205569752Y-74174500D01*
X205569750Y-74174500D01*
X204632281Y-74174500D01*
X204608092Y-74172117D01*
X204584592Y-74167443D01*
X204561335Y-74160387D01*
X204479348Y-74126427D01*
X204479326Y-74126419D01*
X204479317Y-74126416D01*
X204343998Y-74099500D01*
X204343996Y-74099500D01*
X204343994Y-74099500D01*
X204343993Y-74099500D01*
X202131007Y-74099500D01*
X202131003Y-74099500D01*
X202130998Y-74099500D01*
X202028574Y-74119873D01*
X202028563Y-74119876D01*
X202022590Y-74121065D01*
X202022589Y-74121065D01*
X202006379Y-74124289D01*
X202006374Y-74124290D01*
X202006373Y-74124289D01*
X201995671Y-74126419D01*
X201995668Y-74126420D01*
X201975664Y-74134707D01*
X201975660Y-74134708D01*
X201876559Y-74175756D01*
X201866157Y-74179530D01*
X201820468Y-74193835D01*
X201783418Y-74199500D01*
X200070730Y-74199500D01*
X200052074Y-74201249D01*
X200046069Y-74201812D01*
X200042499Y-74201978D01*
X200040297Y-74202353D01*
X199912116Y-74247206D01*
X199912112Y-74247209D01*
X199888436Y-74264683D01*
X199857349Y-74281385D01*
X199832140Y-74290592D01*
X199830047Y-74291358D01*
X199828363Y-74291973D01*
X199785818Y-74299500D01*
X198421000Y-74299500D01*
X198285683Y-74326416D01*
X198285677Y-74326418D01*
X198285667Y-74326421D01*
X198285662Y-74326422D01*
X198285644Y-74326429D01*
X198158201Y-74379217D01*
X198158180Y-74379228D01*
X198158176Y-74379231D01*
X198061698Y-74443696D01*
X198029864Y-74458927D01*
X197998231Y-74468833D01*
X197961174Y-74474500D01*
X197919176Y-74474500D01*
X197902743Y-74476407D01*
X197898328Y-74476662D01*
X197895624Y-74477232D01*
X197800572Y-74519203D01*
X197799296Y-74519748D01*
X197724784Y-74594260D01*
X197724779Y-74594266D01*
X197724777Y-74594271D01*
X197682232Y-74690624D01*
X197681662Y-74693328D01*
X197681407Y-74697741D01*
X197679500Y-74714174D01*
X197205500Y-74714174D01*
X197205500Y-69629500D01*
X197225185Y-69562461D01*
X197277989Y-69516706D01*
X197329500Y-69505500D01*
X205487777Y-69505500D01*
X205487789Y-69505500D01*
X205507935Y-69504510D01*
X205532126Y-69502127D01*
X205552071Y-69499168D01*
X205630703Y-69483527D01*
X205669250Y-69471835D01*
X205713949Y-69453321D01*
X205749480Y-69434330D01*
X205805792Y-69396704D01*
X205836933Y-69371146D01*
X205871146Y-69336933D01*
X205896704Y-69305792D01*
X205934330Y-69249480D01*
X205953321Y-69213949D01*
X205971835Y-69169250D01*
X205983527Y-69130703D01*
X205999168Y-69052071D01*
X206002127Y-69032126D01*
X206004510Y-69007935D01*
X206005500Y-68987789D01*
X206005500Y-67412210D01*
X206004510Y-67392064D01*
X206002127Y-67367873D01*
X205999168Y-67347928D01*
X205985619Y-67279815D01*
X205983528Y-67269300D01*
X205983527Y-67269297D01*
X205971835Y-67230748D01*
X205953323Y-67186055D01*
X205953321Y-67186050D01*
X205934328Y-67150517D01*
X205908013Y-67111134D01*
X205896704Y-67094209D01*
X205896702Y-67094206D01*
X205896699Y-67094202D01*
X205871143Y-67063063D01*
X205836936Y-67028856D01*
X205805797Y-67003300D01*
X205805784Y-67003291D01*
X205749497Y-66965680D01*
X205749480Y-66965670D01*
X205749479Y-66965669D01*
X205726379Y-66953321D01*
X205713960Y-66946682D01*
X205713946Y-66946676D01*
X205705693Y-66943257D01*
X205669267Y-66928169D01*
X205669264Y-66928168D01*
X205669259Y-66928166D01*
X205650532Y-66922485D01*
X205630709Y-66916472D01*
X205552062Y-66900829D01*
X205532126Y-66897872D01*
X205532094Y-66897868D01*
X205507948Y-66895491D01*
X205507917Y-66895488D01*
X205497698Y-66894986D01*
X205487789Y-66894500D01*
X205487777Y-66894500D01*
X195412223Y-66894500D01*
X195412211Y-66894500D01*
X195400704Y-66895065D01*
X195392066Y-66895489D01*
X195367909Y-66897868D01*
X195367896Y-66897869D01*
X195367892Y-66897870D01*
X195367886Y-66897870D01*
X195367861Y-66897874D01*
X195347929Y-66900830D01*
X195347921Y-66900831D01*
X195269307Y-66916468D01*
X195269295Y-66916471D01*
X195230742Y-66928166D01*
X195230741Y-66928166D01*
X195186057Y-66946674D01*
X195186045Y-66946680D01*
X195150535Y-66965659D01*
X195150517Y-66965670D01*
X195094201Y-67003299D01*
X195063060Y-67028857D01*
X195028857Y-67063060D01*
X195003299Y-67094201D01*
X194965670Y-67150517D01*
X194965659Y-67150535D01*
X194946680Y-67186045D01*
X194946674Y-67186057D01*
X194928166Y-67230741D01*
X194928166Y-67230742D01*
X194916470Y-67269297D01*
X194916469Y-67269300D01*
X194900831Y-67347921D01*
X194897872Y-67367872D01*
X194897868Y-67367904D01*
X194895491Y-67392049D01*
X194895488Y-67392082D01*
X194894500Y-67412220D01*
X194894500Y-73670500D01*
X194874815Y-73737539D01*
X194822011Y-73783294D01*
X194770500Y-73794500D01*
X188230771Y-73794500D01*
X188163732Y-73774815D01*
X188117977Y-73722011D01*
X188108033Y-73652853D01*
X188137058Y-73589297D01*
X188157136Y-73570731D01*
X188160656Y-73568132D01*
X188172150Y-73559650D01*
X188252793Y-73450382D01*
X188275219Y-73386290D01*
X188297646Y-73322201D01*
X188297646Y-73322199D01*
X188298020Y-73319999D01*
X188298188Y-73316419D01*
X188300500Y-73291770D01*
X188300500Y-72658228D01*
X188298188Y-72633579D01*
X188298020Y-72630002D01*
X188297646Y-72627800D01*
X188297646Y-72627798D01*
X188252793Y-72499619D01*
X188252792Y-72499617D01*
X188252792Y-72499616D01*
X188172151Y-72390351D01*
X188172150Y-72390350D01*
X188062882Y-72309707D01*
X188062880Y-72309706D01*
X188041867Y-72302353D01*
X187934704Y-72264854D01*
X187934702Y-72264853D01*
X187934700Y-72264853D01*
X187904270Y-72262000D01*
X187904266Y-72262000D01*
X187904264Y-72262000D01*
X186895734Y-72262000D01*
X186895730Y-72262000D01*
X186877074Y-72263749D01*
X186871069Y-72264312D01*
X186867499Y-72264478D01*
X186865297Y-72264853D01*
X186737118Y-72309706D01*
X186627849Y-72390349D01*
X186547206Y-72499618D01*
X186520959Y-72574628D01*
X186504681Y-72605941D01*
X186495569Y-72618645D01*
X186440508Y-72661645D01*
X186430098Y-72665772D01*
X186384399Y-72674500D01*
X185919177Y-72674500D01*
X185884236Y-72669475D01*
X185869237Y-72665070D01*
X185810469Y-72627302D01*
X185803136Y-72618840D01*
X185779804Y-72578589D01*
X185765293Y-72537118D01*
X185684650Y-72427850D01*
X185575382Y-72347207D01*
X185575380Y-72347206D01*
X185447204Y-72302354D01*
X185447202Y-72302353D01*
X185447200Y-72302353D01*
X185416770Y-72299500D01*
X185416766Y-72299500D01*
X185416764Y-72299500D01*
X185042330Y-72299500D01*
X185007389Y-72294475D01*
X184992390Y-72290070D01*
X184933644Y-72252327D01*
X184932457Y-72250958D01*
X184904977Y-72196083D01*
X184903332Y-72188521D01*
X184900500Y-72162168D01*
X184900500Y-72052329D01*
X184905523Y-72017393D01*
X184909927Y-72002395D01*
X184947672Y-71943644D01*
X184949041Y-71942457D01*
X185003920Y-71914977D01*
X185011479Y-71913333D01*
X185037832Y-71910500D01*
X185723876Y-71910500D01*
X185731742Y-71908114D01*
X185734568Y-71907552D01*
X185778229Y-71898868D01*
X185778229Y-71898867D01*
X185778231Y-71898867D01*
X185844552Y-71854552D01*
X185888867Y-71788231D01*
X185888867Y-71788229D01*
X185888868Y-71788229D01*
X185900072Y-71731896D01*
X185900500Y-71729931D01*
X185900500Y-71090063D01*
X185900069Y-71088081D01*
X185888868Y-71031770D01*
X185885975Y-71026358D01*
X185882081Y-71021613D01*
X185872579Y-71007393D01*
X185844552Y-70965447D01*
X185795179Y-70932457D01*
X185788385Y-70927917D01*
X185785557Y-70925047D01*
X185778230Y-70921132D01*
X185778229Y-70921131D01*
X185719752Y-70909500D01*
X185719750Y-70909500D01*
X183480249Y-70909500D01*
X183480247Y-70909500D01*
X183421770Y-70921131D01*
X183421769Y-70921131D01*
X183421768Y-70921132D01*
X183414421Y-70925058D01*
X183411614Y-70927917D01*
X183355446Y-70965447D01*
X183315991Y-71024498D01*
X183314654Y-71026498D01*
X183314653Y-71026499D01*
X183311133Y-71031769D01*
X183299500Y-71090252D01*
X183069000Y-71090252D01*
X183069000Y-70574890D01*
X183074020Y-70539966D01*
X183074842Y-70537163D01*
X183076555Y-70531331D01*
X183114322Y-70472552D01*
X183177875Y-70443521D01*
X183247035Y-70453458D01*
X183296114Y-70493733D01*
X183299110Y-70497888D01*
X183307648Y-70513192D01*
X183308264Y-70512863D01*
X183311133Y-70518231D01*
X183311134Y-70518233D01*
X183355447Y-70584552D01*
X183389507Y-70607310D01*
X183411613Y-70622081D01*
X183416358Y-70625975D01*
X183421770Y-70628868D01*
X183472612Y-70638981D01*
X183475337Y-70639703D01*
X183480249Y-70640500D01*
X185719750Y-70640500D01*
X185723876Y-70640500D01*
X185731742Y-70638114D01*
X185734568Y-70637552D01*
X185766258Y-70631249D01*
X185772354Y-70630648D01*
X185772386Y-70630639D01*
X185783311Y-70627902D01*
X185793515Y-70618654D01*
X185844552Y-70584552D01*
X185888048Y-70519456D01*
X185889355Y-70518364D01*
X185889909Y-70516747D01*
X185894602Y-70510535D01*
X185896257Y-70508481D01*
X185896258Y-70508482D01*
X185910359Y-70490985D01*
X185967750Y-70451144D01*
X185980679Y-70446841D01*
X186019826Y-70440500D01*
X186232670Y-70440500D01*
X186267606Y-70445523D01*
X186282604Y-70449927D01*
X186289088Y-70454093D01*
X186289135Y-70454102D01*
X186289203Y-70454166D01*
X186341355Y-70487672D01*
X186342542Y-70489041D01*
X186370018Y-70543902D01*
X186371663Y-70551460D01*
X186374500Y-70577831D01*
X186374500Y-71129265D01*
X186376812Y-71153929D01*
X186376978Y-71157499D01*
X186377352Y-71159701D01*
X186395059Y-71210300D01*
X186412677Y-71260647D01*
X186422207Y-71287882D01*
X186502850Y-71397150D01*
X186612117Y-71477792D01*
X186612118Y-71477793D01*
X186740299Y-71522646D01*
X186740303Y-71522647D01*
X186758742Y-71524375D01*
X186770730Y-71525500D01*
X186770734Y-71525500D01*
X186770739Y-71525500D01*
X187379270Y-71525500D01*
X187379271Y-71525500D01*
X187403920Y-71523188D01*
X187407498Y-71523020D01*
X187409699Y-71522646D01*
X187409701Y-71522646D01*
X187473790Y-71500219D01*
X187537882Y-71477793D01*
X187647150Y-71397150D01*
X187727793Y-71287882D01*
X187755765Y-71207942D01*
X187772646Y-71159701D01*
X187772646Y-71159699D01*
X187773020Y-71157499D01*
X187773188Y-71153919D01*
X187775500Y-71129270D01*
X187775500Y-70073130D01*
X187775500Y-70070733D01*
X188274500Y-70070733D01*
X188274500Y-71129265D01*
X188276812Y-71153929D01*
X188276978Y-71157499D01*
X188277352Y-71159701D01*
X188295059Y-71210300D01*
X188312677Y-71260647D01*
X188322207Y-71287882D01*
X188402850Y-71397150D01*
X188512117Y-71477792D01*
X188512118Y-71477793D01*
X188640299Y-71522646D01*
X188640303Y-71522647D01*
X188658742Y-71524375D01*
X188670730Y-71525500D01*
X188670734Y-71525500D01*
X188670739Y-71525500D01*
X189279270Y-71525500D01*
X189279271Y-71525500D01*
X189303920Y-71523188D01*
X189307498Y-71523020D01*
X189309699Y-71522646D01*
X189309701Y-71522646D01*
X189373790Y-71500219D01*
X189437882Y-71477793D01*
X189547150Y-71397150D01*
X189627793Y-71287882D01*
X189655765Y-71207942D01*
X189672646Y-71159701D01*
X189672646Y-71159699D01*
X189673020Y-71157499D01*
X189673188Y-71153919D01*
X189675500Y-71129270D01*
X189675500Y-71042329D01*
X189677064Y-71037000D01*
X189675969Y-71031556D01*
X189680523Y-71007393D01*
X189682606Y-71000301D01*
X189684927Y-70992394D01*
X189694569Y-70977386D01*
X189695185Y-70975290D01*
X189696834Y-70973860D01*
X189722672Y-70933644D01*
X189724041Y-70932457D01*
X189778920Y-70904977D01*
X189786479Y-70903333D01*
X189812832Y-70900500D01*
X190024810Y-70900500D01*
X190059746Y-70905523D01*
X190074744Y-70909927D01*
X190086883Y-70917727D01*
X190100924Y-70921012D01*
X190115669Y-70936223D01*
X190133509Y-70947687D01*
X190135683Y-70950195D01*
X190138064Y-70952943D01*
X190146209Y-70967730D01*
X190149554Y-70971181D01*
X190150385Y-70975311D01*
X190163084Y-70998366D01*
X190167807Y-71014033D01*
X190174491Y-71020488D01*
X190177195Y-71025507D01*
X190221951Y-71113344D01*
X190221953Y-71113346D01*
X190221954Y-71113347D01*
X190311652Y-71203045D01*
X190311653Y-71203045D01*
X190311658Y-71203050D01*
X190311659Y-71203051D01*
X190311754Y-71203099D01*
X190424694Y-71260645D01*
X190424698Y-71260647D01*
X190518220Y-71275458D01*
X190518457Y-71275497D01*
X190518466Y-71275497D01*
X190518475Y-71275499D01*
X190518481Y-71275500D01*
X190981518Y-71275499D01*
X191075304Y-71260646D01*
X191188342Y-71203050D01*
X191278050Y-71113342D01*
X191335646Y-71000304D01*
X191335646Y-71000302D01*
X191335647Y-71000301D01*
X191335647Y-71000299D01*
X191335965Y-70999676D01*
X191336784Y-70995562D01*
X191336789Y-70995539D01*
X191337173Y-70990667D01*
X191348186Y-70921132D01*
X191348186Y-70921124D01*
X191348335Y-70920185D01*
X191350500Y-70906519D01*
X191350499Y-70293482D01*
X191335646Y-70199696D01*
X191278050Y-70086658D01*
X191278046Y-70086654D01*
X191278045Y-70086652D01*
X191188347Y-69996954D01*
X191188346Y-69996953D01*
X191188343Y-69996950D01*
X191111519Y-69957805D01*
X191111519Y-69957806D01*
X191110258Y-69957163D01*
X191075301Y-69939352D01*
X191075299Y-69939351D01*
X191075298Y-69939351D01*
X191075296Y-69939350D01*
X190981530Y-69924500D01*
X190981524Y-69924500D01*
X190518482Y-69924500D01*
X190518478Y-69924500D01*
X190453711Y-69934758D01*
X190437519Y-69937323D01*
X190424721Y-69939350D01*
X190424696Y-69939354D01*
X190311650Y-69996954D01*
X190221953Y-70086651D01*
X190213678Y-70102894D01*
X190213675Y-70102899D01*
X190180697Y-70167618D01*
X190175375Y-70173252D01*
X190150776Y-70225138D01*
X190104285Y-70277271D01*
X190098691Y-70280755D01*
X190033137Y-70299500D01*
X189817330Y-70299500D01*
X189782389Y-70294475D01*
X189767390Y-70290070D01*
X189708644Y-70252327D01*
X189707457Y-70250958D01*
X189679977Y-70196083D01*
X189678332Y-70188521D01*
X189675500Y-70162168D01*
X189675500Y-70070728D01*
X189673188Y-70046079D01*
X189673020Y-70042502D01*
X189672646Y-70040297D01*
X189637323Y-69939354D01*
X189637322Y-69939351D01*
X189635968Y-69935481D01*
X189627793Y-69912118D01*
X189547150Y-69802850D01*
X189437882Y-69722207D01*
X189437880Y-69722206D01*
X189398674Y-69708487D01*
X189309704Y-69677354D01*
X189309702Y-69677353D01*
X189309700Y-69677353D01*
X189279270Y-69674500D01*
X189279266Y-69674500D01*
X189279264Y-69674500D01*
X188670734Y-69674500D01*
X188670730Y-69674500D01*
X188652074Y-69676249D01*
X188646069Y-69676812D01*
X188642499Y-69676978D01*
X188640297Y-69677353D01*
X188512118Y-69722206D01*
X188402849Y-69802849D01*
X188322206Y-69912118D01*
X188277353Y-70040297D01*
X188276978Y-70042499D01*
X188276812Y-70046069D01*
X188274500Y-70070733D01*
X187775500Y-70070733D01*
X187775500Y-70070730D01*
X187773139Y-70045563D01*
X187773098Y-70045077D01*
X187773133Y-70044904D01*
X187773020Y-70042502D01*
X187772646Y-70040297D01*
X187737323Y-69939354D01*
X187737322Y-69939351D01*
X187735968Y-69935481D01*
X187727793Y-69912118D01*
X187647150Y-69802850D01*
X187537882Y-69722207D01*
X187537880Y-69722206D01*
X187498674Y-69708487D01*
X187409704Y-69677354D01*
X187409702Y-69677353D01*
X187409700Y-69677353D01*
X187379270Y-69674500D01*
X187379266Y-69674500D01*
X187379264Y-69674500D01*
X186770734Y-69674500D01*
X186770730Y-69674500D01*
X186752074Y-69676249D01*
X186746069Y-69676812D01*
X186742499Y-69676978D01*
X186740297Y-69677353D01*
X186612117Y-69722206D01*
X186508846Y-69798422D01*
X186494637Y-69807485D01*
X186463778Y-69824334D01*
X186404355Y-69839500D01*
X186021749Y-69839500D01*
X185986808Y-69834475D01*
X185971809Y-69830070D01*
X185913041Y-69792303D01*
X185905236Y-69783296D01*
X185901637Y-69779143D01*
X185893427Y-69766032D01*
X185892244Y-69766823D01*
X185844552Y-69695447D01*
X185788383Y-69657916D01*
X185785555Y-69655046D01*
X185778230Y-69651132D01*
X185778229Y-69651131D01*
X185719752Y-69639500D01*
X185719750Y-69639500D01*
X183480249Y-69639500D01*
X183480247Y-69639500D01*
X183421770Y-69651131D01*
X183421769Y-69651131D01*
X183421768Y-69651132D01*
X183414421Y-69655058D01*
X183411614Y-69657917D01*
X183355449Y-69695444D01*
X183355446Y-69695447D01*
X183311129Y-69761772D01*
X183309968Y-69763946D01*
X183297162Y-69783296D01*
X183290725Y-69791283D01*
X183233330Y-69831128D01*
X183163505Y-69833619D01*
X183103418Y-69797963D01*
X183073496Y-69741969D01*
X183072317Y-69736979D01*
X183069000Y-69708487D01*
X183069000Y-69304890D01*
X183074020Y-69269966D01*
X183074842Y-69267163D01*
X183076555Y-69261331D01*
X183114322Y-69202552D01*
X183177875Y-69173521D01*
X183247035Y-69183458D01*
X183296114Y-69223733D01*
X183299110Y-69227888D01*
X183307648Y-69243192D01*
X183308264Y-69242863D01*
X183311133Y-69248231D01*
X183311134Y-69248233D01*
X183355447Y-69314552D01*
X183406477Y-69348649D01*
X183411613Y-69352081D01*
X183416358Y-69355975D01*
X183421770Y-69358868D01*
X183472612Y-69368981D01*
X183475337Y-69369703D01*
X183480249Y-69370500D01*
X185719750Y-69370500D01*
X185723876Y-69370500D01*
X185731742Y-69368114D01*
X185734568Y-69367552D01*
X185766258Y-69361249D01*
X185772354Y-69360648D01*
X185772386Y-69360639D01*
X185783311Y-69357902D01*
X185793515Y-69348654D01*
X185844552Y-69314552D01*
X185848986Y-69307917D01*
X185852592Y-69302518D01*
X185888061Y-69249437D01*
X185894602Y-69240535D01*
X185896257Y-69238481D01*
X185896258Y-69238482D01*
X185910359Y-69220985D01*
X185967750Y-69181144D01*
X185980679Y-69176841D01*
X186019826Y-69170500D01*
X189269560Y-69170500D01*
X189269562Y-69170500D01*
X189345989Y-69150021D01*
X189414511Y-69110460D01*
X189470460Y-69054511D01*
X189940460Y-68584511D01*
X189948983Y-68569748D01*
X189980021Y-68515989D01*
X190000500Y-68439562D01*
X190000500Y-66260438D01*
X189988590Y-66215989D01*
X189980022Y-66184012D01*
X189940460Y-66115489D01*
X189684511Y-65859540D01*
X189684429Y-65859458D01*
X189683882Y-65859074D01*
X189681307Y-65857689D01*
X189616873Y-65820489D01*
X189616048Y-65820003D01*
X189615995Y-65819981D01*
X189615991Y-65819980D01*
X189615990Y-65819979D01*
X189590513Y-65813152D01*
X189590509Y-65813150D01*
X189539563Y-65799500D01*
X189539562Y-65799500D01*
X189539560Y-65799500D01*
X183475190Y-65799500D01*
X183440249Y-65794475D01*
X183425250Y-65790070D01*
X183366485Y-65752306D01*
X183361929Y-65747049D01*
X183336913Y-65701632D01*
X183332191Y-65685970D01*
X183325550Y-65679575D01*
X183322757Y-65674401D01*
X183319447Y-65667904D01*
X183278099Y-65586755D01*
X183278051Y-65586659D01*
X183278050Y-65586658D01*
X183278045Y-65586653D01*
X183278045Y-65586652D01*
X183188347Y-65496954D01*
X183188346Y-65496953D01*
X183188343Y-65496950D01*
X183111519Y-65457805D01*
X183111519Y-65457806D01*
X183110258Y-65457163D01*
X183075301Y-65439352D01*
X183075299Y-65439351D01*
X183075298Y-65439351D01*
X183075296Y-65439350D01*
X182981530Y-65424500D01*
X182981524Y-65424500D01*
X182518482Y-65424500D01*
X182518478Y-65424500D01*
X182453711Y-65434758D01*
X182437519Y-65437323D01*
X182424721Y-65439350D01*
X182424696Y-65439354D01*
X182311650Y-65496954D01*
X182221955Y-65586649D01*
X182221946Y-65586664D01*
X182215292Y-65599723D01*
X182167315Y-65650517D01*
X182099494Y-65667309D01*
X182033360Y-65644768D01*
X181989911Y-65590051D01*
X181984560Y-65572178D01*
X181984268Y-65572252D01*
X181983527Y-65569297D01*
X181971835Y-65530748D01*
X181953323Y-65486055D01*
X181953321Y-65486050D01*
X181934328Y-65450517D01*
X181896699Y-65394202D01*
X181871143Y-65363063D01*
X181870261Y-65362181D01*
X181870135Y-65361951D01*
X181869102Y-65360811D01*
X181869212Y-65360710D01*
X181869227Y-65360697D01*
X181869376Y-65360561D01*
X181836776Y-65300858D01*
X181841760Y-65231166D01*
X181883632Y-65175233D01*
X181949096Y-65150816D01*
X181957942Y-65150500D01*
X206707670Y-65150500D01*
X206742606Y-65155523D01*
X206757604Y-65159927D01*
X206816355Y-65197672D01*
X206817542Y-65199041D01*
X206845018Y-65253902D01*
X206846663Y-65261460D01*
X206849500Y-65287831D01*
X206849500Y-80707670D01*
X206844475Y-80742614D01*
X206840070Y-80757612D01*
X206802327Y-80816355D01*
X206800958Y-80817542D01*
X206746097Y-80845018D01*
X206738539Y-80846663D01*
X206712168Y-80849500D01*
X169292330Y-80849500D01*
X169257389Y-80844475D01*
X169242390Y-80840070D01*
X169183644Y-80802327D01*
X169182457Y-80800958D01*
X169154977Y-80746083D01*
X169153332Y-80738521D01*
X169150500Y-80712168D01*
X169150500Y-76594180D01*
X195189500Y-76594180D01*
X195189500Y-76596822D01*
X195189500Y-77165822D01*
X195191407Y-77182256D01*
X195191662Y-77186670D01*
X195192233Y-77189376D01*
X195226674Y-77267377D01*
X195234780Y-77285734D01*
X195234781Y-77285735D01*
X195309265Y-77360219D01*
X195405626Y-77402767D01*
X195429184Y-77405500D01*
X195557670Y-77405500D01*
X195592606Y-77410523D01*
X195607604Y-77414927D01*
X195666355Y-77452672D01*
X195667542Y-77454041D01*
X195695018Y-77508902D01*
X195696663Y-77516460D01*
X195699500Y-77542831D01*
X195699500Y-78021690D01*
X195694476Y-78056630D01*
X195689525Y-78073489D01*
X195654429Y-78129874D01*
X195634067Y-78148576D01*
X195623820Y-78157021D01*
X195527852Y-78227847D01*
X195527847Y-78227852D01*
X195447206Y-78337118D01*
X195402353Y-78465297D01*
X195401978Y-78467499D01*
X195401812Y-78471069D01*
X195399500Y-78495733D01*
X195399500Y-79504265D01*
X195401812Y-79528929D01*
X195401978Y-79532499D01*
X195402353Y-79534699D01*
X195402353Y-79534701D01*
X195447206Y-79662880D01*
X195447207Y-79662882D01*
X195527850Y-79772150D01*
X195637117Y-79852792D01*
X195637118Y-79852793D01*
X195765299Y-79897646D01*
X195765303Y-79897647D01*
X195783742Y-79899375D01*
X195795730Y-79900500D01*
X195795734Y-79900500D01*
X195795739Y-79900500D01*
X196429270Y-79900500D01*
X196429271Y-79900500D01*
X196453920Y-79898188D01*
X196457498Y-79898020D01*
X196459699Y-79897646D01*
X196459701Y-79897646D01*
X196523790Y-79875219D01*
X196587882Y-79852793D01*
X196697150Y-79772150D01*
X196777793Y-79662882D01*
X196800219Y-79598790D01*
X196822646Y-79534701D01*
X196822646Y-79534699D01*
X196823020Y-79532499D01*
X196823188Y-79528919D01*
X196825500Y-79504270D01*
X196825500Y-78495728D01*
X196823188Y-78471079D01*
X196823020Y-78467502D01*
X196822646Y-78465300D01*
X196822646Y-78465298D01*
X196777793Y-78337119D01*
X196777792Y-78337117D01*
X196777792Y-78337116D01*
X196697151Y-78227851D01*
X196697146Y-78227847D01*
X196587882Y-78147207D01*
X196587880Y-78147206D01*
X196572114Y-78141689D01*
X196459704Y-78102353D01*
X196449146Y-78101363D01*
X196434154Y-78099957D01*
X196410794Y-78095475D01*
X196392390Y-78090070D01*
X196333644Y-78052327D01*
X196332457Y-78050958D01*
X196304977Y-77996083D01*
X196303332Y-77988521D01*
X196300500Y-77962168D01*
X196300500Y-77547329D01*
X196305523Y-77512393D01*
X196309927Y-77497395D01*
X196347672Y-77438644D01*
X196349041Y-77437457D01*
X196403920Y-77409977D01*
X196411479Y-77408333D01*
X196437832Y-77405500D01*
X196570814Y-77405500D01*
X196570816Y-77405500D01*
X196594374Y-77402767D01*
X196690735Y-77360219D01*
X196765219Y-77285735D01*
X196807767Y-77189374D01*
X196810500Y-77165816D01*
X196810500Y-76594184D01*
X196810499Y-76594174D01*
X197679500Y-76594174D01*
X197679500Y-77165822D01*
X197681407Y-77182256D01*
X197681662Y-77186670D01*
X197682233Y-77189376D01*
X197716674Y-77267377D01*
X197724780Y-77285734D01*
X197724781Y-77285735D01*
X197799265Y-77360219D01*
X197895626Y-77402767D01*
X197919184Y-77405500D01*
X197919186Y-77405500D01*
X199060814Y-77405500D01*
X199060816Y-77405500D01*
X199084374Y-77402767D01*
X199180735Y-77360219D01*
X199255219Y-77285735D01*
X199297767Y-77189374D01*
X199300500Y-77165816D01*
X199300500Y-76594184D01*
X199297767Y-76570626D01*
X199255219Y-76474265D01*
X199180735Y-76399781D01*
X199180734Y-76399780D01*
X199149901Y-76386166D01*
X199117138Y-76371699D01*
X199084376Y-76357233D01*
X199060820Y-76354500D01*
X199060819Y-76354500D01*
X199060816Y-76354500D01*
X197919184Y-76354500D01*
X197919180Y-76354500D01*
X197919176Y-76354500D01*
X197902743Y-76356407D01*
X197898328Y-76356662D01*
X197895624Y-76357232D01*
X197800572Y-76399203D01*
X197799296Y-76399748D01*
X197724784Y-76474260D01*
X197724779Y-76474266D01*
X197724777Y-76474271D01*
X197682232Y-76570624D01*
X197681662Y-76573328D01*
X197681407Y-76577741D01*
X197679500Y-76594174D01*
X196810499Y-76594174D01*
X196807767Y-76570626D01*
X196765219Y-76474265D01*
X196690735Y-76399781D01*
X196690734Y-76399780D01*
X196659901Y-76386166D01*
X196627138Y-76371699D01*
X196594376Y-76357233D01*
X196570820Y-76354500D01*
X196570819Y-76354500D01*
X196570816Y-76354500D01*
X195429184Y-76354500D01*
X195429180Y-76354500D01*
X195429176Y-76354500D01*
X195412743Y-76356407D01*
X195408328Y-76356662D01*
X195405624Y-76357232D01*
X195310572Y-76399203D01*
X195309296Y-76399748D01*
X195234784Y-76474260D01*
X195234779Y-76474266D01*
X195234777Y-76474271D01*
X195192232Y-76570624D01*
X195191662Y-76573328D01*
X195191569Y-76574937D01*
X195191609Y-76575876D01*
X195191512Y-76576837D01*
X195189500Y-76594180D01*
X169150500Y-76594180D01*
X169150500Y-65292329D01*
X169155523Y-65257393D01*
X169159927Y-65242395D01*
X169197672Y-65183644D01*
X169199041Y-65182457D01*
X169253920Y-65154977D01*
X169261479Y-65153333D01*
X169287832Y-65150500D01*
X169842056Y-65150500D01*
X169909095Y-65170185D01*
G37*
%TD.AperFunction*%
%TA.AperFunction,Conductor*%
G36*
X189292606Y-66405523D02*
G01*
X189307604Y-66409927D01*
X189366355Y-66447672D01*
X189367542Y-66449041D01*
X189395018Y-66503902D01*
X189396663Y-66511460D01*
X189399500Y-66537831D01*
X189399500Y-68206337D01*
X189394476Y-68241274D01*
X189387064Y-68266515D01*
X189355769Y-68319259D01*
X189154455Y-68520573D01*
X189126204Y-68541722D01*
X189103116Y-68554330D01*
X189043686Y-68569500D01*
X186021749Y-68569500D01*
X185986808Y-68564475D01*
X185971809Y-68560070D01*
X185913041Y-68522303D01*
X185910086Y-68518894D01*
X185901637Y-68509143D01*
X185893427Y-68496032D01*
X185892244Y-68496823D01*
X185844552Y-68425447D01*
X185788383Y-68387916D01*
X185785555Y-68385046D01*
X185778230Y-68381132D01*
X185778229Y-68381131D01*
X185719752Y-68369500D01*
X185719750Y-68369500D01*
X183480249Y-68369500D01*
X183480247Y-68369500D01*
X183421770Y-68381131D01*
X183421769Y-68381131D01*
X183421768Y-68381132D01*
X183414421Y-68385058D01*
X183411614Y-68387917D01*
X183355449Y-68425444D01*
X183355446Y-68425447D01*
X183311129Y-68491772D01*
X183309968Y-68493946D01*
X183297162Y-68513296D01*
X183290725Y-68521283D01*
X183233330Y-68561128D01*
X183163505Y-68563619D01*
X183103418Y-68527963D01*
X183073496Y-68471969D01*
X183072317Y-68466979D01*
X183069000Y-68438487D01*
X183069000Y-68022165D01*
X183069000Y-67905000D01*
X183052500Y-67822045D01*
X183050905Y-67814030D01*
X183050357Y-67808465D01*
X183049655Y-67807742D01*
X183048525Y-67802060D01*
X183048524Y-67802059D01*
X183048524Y-67802058D01*
X182990212Y-67714788D01*
X182902942Y-67656476D01*
X182902941Y-67656475D01*
X182902940Y-67656475D01*
X182902939Y-67656474D01*
X182902614Y-67656409D01*
X182901860Y-67655633D01*
X182900611Y-67655042D01*
X182890970Y-67654093D01*
X182800004Y-67636000D01*
X182800003Y-67636000D01*
X181199996Y-67636000D01*
X181199995Y-67636000D01*
X181097060Y-67656474D01*
X181097059Y-67656474D01*
X181097056Y-67656475D01*
X181091650Y-67659364D01*
X181086904Y-67663260D01*
X181009788Y-67714788D01*
X180958260Y-67791904D01*
X180954366Y-67796648D01*
X180951475Y-67802058D01*
X180951475Y-67802059D01*
X180951474Y-67802060D01*
X180947499Y-67822045D01*
X180947497Y-67822057D01*
X180931000Y-67905000D01*
X180931000Y-68022165D01*
X180930581Y-68027250D01*
X180905454Y-68092445D01*
X180849069Y-68133707D01*
X180779328Y-68137934D01*
X180718372Y-68103785D01*
X180685555Y-68042102D01*
X180683419Y-68006872D01*
X180685345Y-67983500D01*
X180688867Y-67978231D01*
X180700500Y-67919748D01*
X180700500Y-67280252D01*
X180700500Y-67280249D01*
X180700500Y-67280247D01*
X183299500Y-67280247D01*
X183299500Y-67280252D01*
X183299500Y-67919748D01*
X183311133Y-67978231D01*
X183314653Y-67983499D01*
X183314654Y-67983501D01*
X183314656Y-67983504D01*
X183314658Y-67983506D01*
X183355447Y-68044552D01*
X183411619Y-68082085D01*
X183416359Y-68085976D01*
X183421770Y-68088868D01*
X183472612Y-68098981D01*
X183475337Y-68099703D01*
X183480249Y-68100500D01*
X185719750Y-68100500D01*
X185723876Y-68100500D01*
X185731742Y-68098114D01*
X185734568Y-68097552D01*
X185766258Y-68091249D01*
X185772354Y-68090648D01*
X185772386Y-68090639D01*
X185783311Y-68087902D01*
X185793515Y-68078654D01*
X185844552Y-68044552D01*
X185888061Y-67979437D01*
X185894602Y-67970535D01*
X185896257Y-67968481D01*
X185896258Y-67968482D01*
X185910359Y-67950985D01*
X185967750Y-67911144D01*
X185980679Y-67906841D01*
X186019826Y-67900500D01*
X186179560Y-67900500D01*
X186214492Y-67905521D01*
X186239736Y-67912934D01*
X186292480Y-67944228D01*
X186346780Y-67998528D01*
X186466874Y-68059719D01*
X186466876Y-68059719D01*
X186467502Y-68060038D01*
X186471627Y-68060859D01*
X186471644Y-68060863D01*
X186476508Y-68061246D01*
X186566506Y-68075500D01*
X186566507Y-68075500D01*
X186566512Y-68075500D01*
X187083492Y-68075500D01*
X187083493Y-68075500D01*
X187119565Y-68069786D01*
X187173488Y-68061246D01*
X187178362Y-68060862D01*
X187178380Y-68060858D01*
X187187938Y-68058956D01*
X187192850Y-68058178D01*
X187205093Y-68048526D01*
X187303220Y-67998528D01*
X187398528Y-67903220D01*
X187459719Y-67783126D01*
X187459719Y-67783124D01*
X187459720Y-67783123D01*
X187470543Y-67714789D01*
X187470543Y-67714788D01*
X187475500Y-67683491D01*
X187475500Y-67116506D01*
X187461246Y-67026509D01*
X187460862Y-67021638D01*
X187460857Y-67021615D01*
X187460039Y-67017502D01*
X187442728Y-66983528D01*
X187398528Y-66896780D01*
X187398526Y-66896778D01*
X187398523Y-66896774D01*
X187398522Y-66896773D01*
X187398521Y-66896771D01*
X187303228Y-66801478D01*
X187303221Y-66801473D01*
X187303220Y-66801472D01*
X187183126Y-66740281D01*
X187183124Y-66740280D01*
X187183121Y-66740279D01*
X187183119Y-66740278D01*
X187183120Y-66740278D01*
X187083497Y-66724500D01*
X187083493Y-66724500D01*
X187083488Y-66724500D01*
X186566512Y-66724500D01*
X186566507Y-66724500D01*
X186566503Y-66724500D01*
X186466888Y-66740277D01*
X186466871Y-66740280D01*
X186453434Y-66743639D01*
X186442364Y-66752769D01*
X186426908Y-66760645D01*
X186426904Y-66760647D01*
X186346782Y-66801470D01*
X186346771Y-66801477D01*
X186251477Y-66896771D01*
X186251468Y-66896786D01*
X186190278Y-67016878D01*
X186190277Y-67016881D01*
X186174500Y-67116501D01*
X186174500Y-67157670D01*
X186170808Y-67170242D01*
X186171821Y-67183305D01*
X186169475Y-67192614D01*
X186165070Y-67207612D01*
X186155429Y-67222616D01*
X186154815Y-67224709D01*
X186153168Y-67226136D01*
X186127327Y-67266355D01*
X186125958Y-67267542D01*
X186071097Y-67295018D01*
X186063539Y-67296663D01*
X186037168Y-67299500D01*
X186021749Y-67299500D01*
X185986808Y-67294475D01*
X185971809Y-67290070D01*
X185913041Y-67252303D01*
X185904580Y-67242539D01*
X185901637Y-67239143D01*
X185893427Y-67226032D01*
X185892244Y-67226823D01*
X185850059Y-67163689D01*
X185844552Y-67155447D01*
X185785920Y-67116270D01*
X185783558Y-67114524D01*
X185782864Y-67113608D01*
X185778230Y-67111132D01*
X185778229Y-67111131D01*
X185719752Y-67099500D01*
X185719750Y-67099500D01*
X183480249Y-67099500D01*
X183480247Y-67099500D01*
X183421770Y-67111131D01*
X183421769Y-67111131D01*
X183421768Y-67111132D01*
X183416355Y-67114024D01*
X183411614Y-67117916D01*
X183355447Y-67155446D01*
X183355446Y-67155447D01*
X183317916Y-67211614D01*
X183314024Y-67216355D01*
X183311132Y-67221768D01*
X183311132Y-67221769D01*
X183311131Y-67221770D01*
X183299500Y-67280247D01*
X180700500Y-67280247D01*
X180700500Y-67280063D01*
X180700069Y-67278081D01*
X180688868Y-67221770D01*
X180685976Y-67216359D01*
X180682082Y-67211615D01*
X180673246Y-67198391D01*
X180652368Y-67131715D01*
X180670851Y-67064335D01*
X180722829Y-67017644D01*
X180776348Y-67005500D01*
X181487777Y-67005500D01*
X181487789Y-67005500D01*
X181507935Y-67004510D01*
X181532126Y-67002127D01*
X181552071Y-66999168D01*
X181630703Y-66983527D01*
X181669250Y-66971835D01*
X181713949Y-66953321D01*
X181749480Y-66934330D01*
X181805792Y-66896704D01*
X181836933Y-66871146D01*
X181871146Y-66836933D01*
X181896704Y-66805792D01*
X181934330Y-66749480D01*
X181953321Y-66713949D01*
X181971835Y-66669250D01*
X181983527Y-66630703D01*
X181983528Y-66630693D01*
X181984268Y-66627747D01*
X181985470Y-66628048D01*
X182015553Y-66570498D01*
X182076259Y-66535907D01*
X182146030Y-66539627D01*
X182202714Y-66580477D01*
X182215294Y-66600279D01*
X182221951Y-66613344D01*
X182221953Y-66613346D01*
X182221954Y-66613347D01*
X182311652Y-66703045D01*
X182311653Y-66703045D01*
X182311658Y-66703050D01*
X182311659Y-66703051D01*
X182311754Y-66703099D01*
X182424694Y-66760645D01*
X182424698Y-66760647D01*
X182518220Y-66775458D01*
X182518457Y-66775497D01*
X182518466Y-66775497D01*
X182518475Y-66775499D01*
X182518481Y-66775500D01*
X182981518Y-66775499D01*
X183075304Y-66760646D01*
X183188342Y-66703050D01*
X183278050Y-66613342D01*
X183319306Y-66532372D01*
X183324623Y-66526742D01*
X183341172Y-66491835D01*
X183341174Y-66491836D01*
X183349222Y-66474859D01*
X183395722Y-66422723D01*
X183401343Y-66419224D01*
X183466863Y-66400500D01*
X189257670Y-66400500D01*
X189292606Y-66405523D01*
G37*
%TD.AperFunction*%
%TD*%
D27*
X206000500Y-80222925D03*
X205000500Y-80222925D03*
X204000500Y-80222925D03*
X203000500Y-80222925D03*
X202000500Y-80222925D03*
X201000500Y-80222925D03*
X200000500Y-80222925D03*
X199000500Y-80222925D03*
X198000500Y-80222925D03*
X192841401Y-80382024D03*
X192000500Y-80222925D03*
X191000500Y-80222925D03*
X190000500Y-80222925D03*
X189000500Y-80222925D03*
X188000500Y-80222925D03*
X187000500Y-80222925D03*
X172000500Y-80222925D03*
X171000500Y-80222925D03*
X170000500Y-80222925D03*
X202341401Y-79515999D03*
X201500500Y-79356900D03*
X200500500Y-79356900D03*
X199500500Y-79356900D03*
X198500500Y-79356900D03*
X197500500Y-79356900D03*
X192500500Y-79356900D03*
X191725500Y-79356900D03*
X190500500Y-79581900D03*
X189500500Y-79356900D03*
X188500500Y-79356900D03*
X187500500Y-79356900D03*
X186725500Y-79356900D03*
X172500500Y-79356900D03*
X171500500Y-79356900D03*
X170500500Y-79356900D03*
X202000500Y-78490875D03*
X201000500Y-78490875D03*
X200000500Y-78490875D03*
X199000500Y-78490875D03*
X198000500Y-78490875D03*
X192841401Y-78649974D03*
X192000500Y-78490875D03*
X189000500Y-78490875D03*
X188000500Y-78490875D03*
X187000500Y-78490875D03*
X172000500Y-78490875D03*
X171000500Y-78490875D03*
X170000500Y-78490875D03*
X202341401Y-77783949D03*
X187500500Y-77624850D03*
X186725500Y-77624850D03*
X172500500Y-77624850D03*
X171500500Y-77624850D03*
X170500500Y-77624850D03*
X202225500Y-76758825D03*
X188000500Y-76758825D03*
X187000500Y-76758825D03*
X170000500Y-76758825D03*
X202341401Y-76051899D03*
X170000500Y-75026775D03*
X202000500Y-73294725D03*
X201000500Y-73294725D03*
X200000500Y-73294725D03*
X199000500Y-73294725D03*
X198000500Y-73294725D03*
X194000500Y-73294725D03*
X193000500Y-73294725D03*
X192000500Y-73294725D03*
X191000500Y-73294725D03*
X190000500Y-73294725D03*
X189000500Y-73294725D03*
X170000500Y-73294725D03*
X202341401Y-72587799D03*
X201500500Y-72428700D03*
X200500500Y-72428700D03*
X199500500Y-72428700D03*
X198500500Y-72428700D03*
X194500500Y-72428700D03*
X193500500Y-72428700D03*
X192500500Y-72428700D03*
X191500500Y-72428700D03*
X190500500Y-72428700D03*
X189500500Y-72428700D03*
X202000500Y-71562675D03*
X201000500Y-71562675D03*
X200000500Y-71562675D03*
X199000500Y-71562675D03*
X198000500Y-71562675D03*
X202341401Y-70855749D03*
X201500500Y-70696650D03*
X200500500Y-70696650D03*
X199500500Y-70696650D03*
X198500500Y-70696650D03*
X194500500Y-68964600D03*
X193500500Y-68964600D03*
X192500500Y-68964600D03*
X191500500Y-68964600D03*
X190500500Y-68964600D03*
X194000500Y-68098575D03*
X193000500Y-68098575D03*
X192000500Y-68098575D03*
X191000500Y-68098575D03*
X194500500Y-67232550D03*
X193500500Y-67232550D03*
X192500500Y-67232550D03*
X191500500Y-67232550D03*
X190500500Y-67232550D03*
X202000500Y-66366525D03*
X201000500Y-66366525D03*
X200000500Y-66366525D03*
X199000500Y-66366525D03*
X198000500Y-66366525D03*
X197000500Y-66366525D03*
X196000500Y-66366525D03*
X195000500Y-66366525D03*
X194000500Y-66366525D03*
X193000500Y-66366525D03*
X192000500Y-66366525D03*
X191000500Y-66366525D03*
X196500000Y-67700000D03*
X196500000Y-70700000D03*
X196500000Y-69700000D03*
X195500000Y-68700000D03*
X195500000Y-69700000D03*
X195500000Y-67700000D03*
X195500000Y-70700000D03*
X196500000Y-68700000D03*
X177900000Y-67600000D03*
X177800000Y-70300000D03*
D28*
X171100000Y-67700000D03*
X171100000Y-70240000D03*
X204700000Y-75225000D03*
X204700000Y-77765000D03*
X204700000Y-68125000D03*
X204700000Y-70665000D03*
M02*
